<svg width="140" height="44" viewBox="0 0 140 44" fill="none" xmlns="http://www.w3.org/2000/svg">
<path class="budy_y" d="M133.884 9.88464H140V39.8269C140 40.9254 139.644 41.83 138.933 42.5409C138.248 43.2507 137.358 43.6061 136.263 43.6071H121.941V37.7926H132.571C133.444 37.7926 133.88 37.3083 133.881 36.3397V30.4286H133.001C131.933 33.2055 129.634 34.5944 126.105 34.5954C124.962 34.6031 123.827 34.4046 122.755 34.0095C121.725 33.6247 120.796 33.0118 120.038 32.2169C119.225 31.351 118.597 30.3289 118.193 29.213C117.772 27.9847 117.562 26.5469 117.563 24.8997V9.88464H123.678V23.6446C123.678 25.3572 124.083 26.6978 124.891 27.6664C125.7 28.6027 126.914 29.0709 128.532 29.0709C130.376 29.0709 131.719 28.4895 132.561 27.3266C133.433 26.1315 133.87 24.5165 133.871 22.4817L133.884 9.88464Z" fill="#F6D44C"/>
<path class="budy_d" d="M109.745 0V13.3733H108.865C108.283 12.1234 107.357 11.0648 106.194 10.321C105.066 9.57898 103.532 9.20794 101.591 9.20794C100.159 9.20291 98.74 9.48272 97.4171 10.031C96.1105 10.5878 94.9361 11.4132 93.9705 12.4535C92.9512 13.5658 92.1597 14.8664 91.6405 16.282C91.0908 17.7993 90.8154 19.527 90.8145 21.4652V22.344C90.8145 24.3134 91.0737 26.0577 91.5921 27.577C92.0859 28.997 92.843 30.3117 93.8238 31.4523C94.7665 32.4601 95.9067 33.2637 97.1736 33.8132C99.454 34.6707 101.94 34.8238 104.309 34.2526C105.066 34.0636 105.788 33.7525 106.445 33.3314C107.008 32.9907 107.502 32.547 107.901 32.0235C108.278 31.525 108.603 30.9896 108.872 30.4256H109.752V33.9158H115.869V0H109.745ZM109.745 22.1916C109.745 24.162 109.146 25.7609 107.949 26.9882C106.784 28.1833 105.247 28.7809 103.339 28.7809C101.431 28.7809 99.8772 28.1994 98.679 27.0365C97.514 25.8414 96.9315 24.2264 96.9315 22.1916V21.6058C96.9315 19.57 97.514 17.9711 98.679 16.8092C99.8763 15.6141 101.43 15.0166 103.339 15.0166C105.248 15.0166 106.785 15.6302 107.949 16.8576C109.146 18.0527 109.745 19.6354 109.745 21.6058V22.1916Z" fill="#2F75E3"/>
<path class="budy_u" d="M83.6645 9.88464H89.7815V33.9158H83.6645V30.4286H82.7842C81.716 33.2055 79.4173 34.5944 75.8881 34.5954C74.7457 34.6032 73.6114 34.4047 72.5398 34.0095C71.5092 33.6251 70.5796 33.0122 69.821 32.2169C69.0087 31.3506 68.3812 30.3286 67.9766 29.213C67.5648 27.9837 67.3589 26.5474 67.3589 24.9041V9.88464H73.4744V23.6446C73.4744 25.3572 73.8789 26.6978 74.6878 27.6664C75.4968 28.6027 76.7102 29.0709 78.3281 29.0709C80.172 29.0709 81.515 28.4895 82.3572 27.3266C83.2317 26.1315 83.6684 24.5165 83.6675 22.4817L83.6645 9.88464Z" fill="#72C7A0"/>
<path class="budy_b" d="M65.3987 16.2805C64.9092 14.862 64.1331 13.559 63.1186 12.452C62.2006 11.4013 61.0551 10.5729 59.7688 10.0296C58.4976 9.47916 57.1254 9.19933 55.7397 9.20795C53.8313 9.20795 52.2618 9.57946 51.0313 10.3225C49.8041 11.0307 48.8224 12.0954 48.2171 13.3747H47.3367V0H41.2271V33.9158H47.3426V30.4286H48.2229C48.5204 30.9867 48.8609 31.5209 49.2412 32.0264C49.6816 32.5282 50.188 32.9682 50.7466 33.3343C51.4078 33.7421 52.125 34.0514 52.8756 34.2526C55.1958 34.8236 57.6356 34.6702 59.8657 33.8132C61.1429 33.2762 62.2864 32.4658 63.2154 31.4391C64.1971 30.3005 64.9556 28.9879 65.4515 27.5696C66.0003 26.0504 66.2751 24.306 66.2761 22.3366V21.4579C66.2742 19.5246 65.9817 17.7988 65.3987 16.2805ZM60.1576 22.1916C60.1576 24.2265 59.559 25.8414 58.3617 27.0365C57.1967 28.1994 55.6595 28.7809 53.7501 28.7809C51.8407 28.7809 50.2874 28.1833 49.0901 26.9882C47.9251 25.7609 47.3426 24.162 47.3426 22.1916V21.6058C47.3426 19.6344 47.9251 18.0517 49.0901 16.8576C50.2874 15.6302 51.8407 15.0166 53.7501 15.0166C55.6595 15.0166 57.1967 15.6141 58.3617 16.8092C59.559 17.9721 60.1576 19.571 60.1576 21.6058V22.1916Z" fill="#7D55C7"/>
<g>
<path class="budy_face" d="M17.3254 0H34.6596V17.2984C34.6598 19.5705 34.2115 21.8203 33.3404 23.9195C32.4693 26.0186 31.1924 27.9258 29.5827 29.5322C27.973 31.1386 26.0619 32.4127 23.9588 33.2817C21.8557 34.1507 19.6016 34.5976 17.3254 34.5968C12.7299 34.596 8.32289 32.7731 5.07379 29.5291C1.82469 26.2851 -0.000389124 21.8856 6.22305e-08 17.2984V17.2984C-8.60081e-08 12.7113 1.82521 8.31209 5.07422 5.06814C8.32324 1.82418 12.73 0.00116512 17.3254 0V0Z" fill="#FFD700"/>
<path class="budy_mouth" d="M12.6006 23.4482C12.6225 24.6894 13.1318 25.8724 14.0189 26.7424C14.906 27.6125 16.0999 28.1 17.3435 28.1C18.5871 28.1 19.7811 27.6125 20.6681 26.7424C21.5552 25.8724 22.0646 24.6894 22.0864 23.4482V22.4596H12.6006V23.4482Z" fill="black"/>
<path class="budy_il" d="M26.7863 14.4175C26.7654 13.2763 26.2965 12.1889 25.4806 11.3893C24.6647 10.5896 23.5669 10.1416 22.4234 10.1416C21.28 10.1416 20.1822 10.5896 19.3663 11.3893C18.5504 12.1889 18.0815 13.2763 18.0605 14.4175V18.924H26.7863V14.4175Z" fill="black"/>
<path class="budy_ir" d="M16.592 17.2823C16.571 16.1411 16.1022 15.0538 15.2862 14.2541C14.4703 13.4545 13.3726 13.0065 12.2291 13.0065C11.0857 13.0065 9.98789 13.4545 9.17197 14.2541C8.35605 15.0538 7.88718 16.1411 7.86621 17.2823V18.9271H16.592V17.2823Z" fill="black"/>
</g>
</svg>
