<svg data-name="Layer 1" id="Layer_1" viewBox="0 0 644.23 114.71" xmlns="http://www.w3.org/2000/svg">
<path class="letter" d="M22.18 0.34L41.68 60.76L64.11 0.34L81.44 0.34L103.88 60.76L123.38 0.34L145.56 0.34L112.67 92.11L95.08 92.11L72.78 30.93L50.47 92.11L32.88 92.11L0 0.34L22.18 0.34z"></path>
<path class="letter letter-animate" d="M177.16,93.81c-21.03,0-37.98-16.31-37.98-36.45s16.95-36.45,37.98-36.45,37.98,16.31,37.98,36.45-16.95,36.45-37.98,36.45ZM177.16,38.24c-10.45,0-18.86,8.54-18.86,19.12s8.41,19.12,18.86,19.12,18.86-8.54,18.86-19.12-8.41-19.12-18.86-19.12Z"></path>
<path class="letter letter-animate" d="M259.11,20.9h2.55v17.33c-10.58,0-19.12,8.54-19.12,19.12v34.41h-19.12v-34.41c0-20.14,14.53-36.45,35.69-36.45Z"></path>
<path class="letter letter-animate" d="M269.94 91.77L269.94 0L289.06 0L289.06 49.33L311.24 22.94L334.18 22.94L308.82 52.26L340.17 91.77L316.97 91.77L289.06 55.44L289.06 91.77L269.94 91.77z"></path>
<path class="letter letter-animate" d="M399.82,70.36c0,14.78-13.26,23.45-28.04,23.45s-28.04-8.67-28.04-23.45h19.12c0,5.86,4.72,7.39,8.92,7.39s8.92-2.17,8.92-6.63c0-3.19-4.21-6.12-9.94-6.88-13.38-1.66-26.26-9.81-26.26-20.65,0-14.02,12.49-22.69,27.28-22.69s27.28,8.67,27.28,23.45h-19.12c0-5.86-3.95-7.39-8.16-7.39s-8.16,1.53-8.16,6.12c0,4.08,8.41,7.27,15.8,8.16,10.07,1.15,20.39,7.52,20.39,19.12Z"></path>
<path class="letter letter-animate" d="M485.08,57.35c0,20.14-16.95,36.45-37.86,36.45-7.26,0-13.89-2.93-18.74-7.65v28.55h-19.12v-57.36c0-20.14,16.95-36.45,37.85-36.45s37.86,16.31,37.86,36.45ZM465.97,57.35c0-10.58-8.54-19.12-19.12-19.12s-19.12,8.54-19.12,19.12,8.54,19.12,19.12,19.12,19.12-8.54,19.12-19.12Z"></path>
<path class="letter letter-animate" d="M528.16,20.9c-21.03,0-37.98,16.31-37.98,36.45s16.95,36.45,37.98,36.45,37.98-16.31,37.98-36.45-16.95-36.45-37.98-36.45ZM528.16,78.14c-11.32,0-20.53-9.33-20.53-20.79s9.21-20.79,20.53-20.79,20.53,9.33,20.53,20.79-9.21,20.79-20.53,20.79Z"></path>
<path class="letter letter-animate" d="M607.03,80.65c0-1.7.18-3.36.52-4.96-7.95-2.32-13.75-9.63-13.75-18.34v-18.1h19.12v-16.31h-19.12V0h-19.12v57.35c0,20.14,14.53,36.45,35.69,36.45h.59c-2.48-3.78-3.93-8.3-3.93-13.15Z"></path>
<path class="letter last" d="M630.75,66.98c-7.43,0-13.48,6.14-13.48,13.68s6.05,13.68,13.48,13.68,13.48-6.14,13.48-13.68-6.05-13.68-13.48-13.68Z"></path>
</svg>