<svg width="1315" height="651" viewBox="0 0 1315 651" fill="none" xmlns="http://www.w3.org/2000/svg">
<path fill-rule="evenodd" clip-rule="evenodd" d="M1075.42 271.908C1075.09 272.234 1074.12 272.842 1073.28 273.516C1073.69 274.199 1073.61 275.367 1074.41 275.442C1075.54 275.55 1075.43 277.271 1074.19 277.001C1072.96 276.732 1072.96 278.667 1074.03 280.333C1075.11 281.998 1071.99 283.88 1072.85 284.74C1073.71 285.597 1073.01 286.62 1073.39 287.159C1073.76 287.695 1078.34 286.943 1080.33 284.903C1082.32 282.858 1082.85 283.128 1083.87 283.398C1084.9 283.665 1085.92 282.644 1085.38 281.838C1084.84 281.029 1084.25 279.043 1084.41 276.569C1084.51 275.134 1082.55 272.536 1080.65 270.462C1080.06 270.936 1079.52 271.187 1078.73 271.187C1077.43 271.189 1076 271.331 1075.42 271.908Z" fill="#D1E9F9"/>
<path fill-rule="evenodd" clip-rule="evenodd" d="M937.728 330.827C937.077 329.304 936.638 326.47 936.855 325.383C937.074 324.298 938.379 325.164 938.816 323.863C939.252 322.552 935.112 322.552 936.418 320.81C937.728 319.071 937.728 320.81 939.468 320.81C941.215 320.81 941.864 321.683 941.864 322.771C941.864 323.863 943.612 324.514 943.612 324.514C943.612 324.514 946.441 324.298 947.752 324.298C949.06 324.298 950.364 324.298 950.364 325.166C950.364 326.039 948.841 328.871 947.533 328.871C946.225 328.871 946.225 332.571 947.317 332.785C948.405 333.006 949.275 329.958 949.927 329.958C950.398 329.958 950.757 333.414 951.399 336.976C951.568 336.776 951.745 336.632 951.93 336.632C952.792 336.632 952.36 333.618 952.937 332.754C953.51 331.893 953.224 329.169 953.656 329.169C954.085 329.169 956.67 330.029 956.527 329.313C956.383 328.594 958.107 326.153 957.82 324.863C957.529 323.574 958.825 321.992 958.825 320.416C958.825 318.837 960.261 318.405 961.266 317.543C962.268 316.681 963.992 315.535 964.28 316.253C964.569 316.969 966.719 317.543 965.86 316.253C964.996 314.959 964.996 314.102 965.571 313.815C966.147 313.525 966.435 312.091 966.435 312.091C966.435 312.091 964.569 311.802 964.28 310.944C963.991 310.085 962.841 309.225 962.841 308.506C962.841 307.787 961.838 308.074 960.977 308.793C960.113 309.512 958.536 307.933 956.669 308.939C954.803 309.942 954.371 311.087 953.51 310.945C952.648 310.799 952.791 311.664 952.073 312.38C951.357 313.099 950.78 313.961 950.351 313.961C949.923 313.961 948.484 314.68 948.484 314.68C948.484 314.68 949.491 316.83 948.916 317.834C948.341 318.84 946.902 317.834 945.327 318.267C943.745 318.697 943.028 317.691 941.876 317.976C940.73 318.267 940.012 317.257 939.439 317.403C938.864 317.546 938.002 316.11 938.289 314.962C938.578 313.818 937.714 312.237 937.141 313.099C936.565 313.961 935.707 313.528 935.707 314.821C935.707 316.11 936.425 317.691 935.562 318.551C934.7 319.411 930.104 319.844 929.245 319.125C928.38 318.407 924.65 317.976 924.505 317.257C924.362 316.54 923.213 315.251 922.495 315.251C921.775 315.251 919.621 316.254 919.049 315.824C918.474 315.394 917.035 314.245 916.033 314.105C915.026 313.959 913.446 313.24 913.303 312.667C913.159 312.093 910.863 311.804 910.431 311.231C910 310.656 908.565 310.517 908.565 309.798C908.565 309.08 909.14 307.933 909.14 307.07C909.14 306.203 910.861 305.351 910.861 304.773C910.861 304.2 909.284 303.191 909.284 303.191C909.284 303.191 908.277 301.326 907.128 301.326C905.978 301.326 905.116 299.32 904.114 299.177C903.108 299.032 903.394 297.023 902.821 296.304C902.249 295.585 902.678 293.866 903.683 294.725C904.687 295.585 906.556 294.725 905.837 293.433C905.117 292.141 903.826 290.998 903.826 290.279C903.826 289.559 904.69 287.405 903.683 286.829C902.68 286.259 901.816 285.396 901.528 284.394C901.241 283.388 900.09 282.67 900.09 282.67L898.656 282.815C898.656 282.815 897.793 285.111 897.219 285.397C896.645 285.684 894.633 286.115 893.628 286.83C892.625 287.548 889.755 285.827 888.175 285.827C886.592 285.827 885.585 287.406 886.304 287.838C887.025 288.267 886.881 291.279 886.881 291.279C886.881 291.279 887.743 295.012 889.034 294.726C890.327 294.441 891.908 296.017 890.757 296.306C889.609 296.593 889.034 297.885 888.891 299.034C888.747 300.18 889.034 301.613 888.175 301.759C887.313 301.902 886.45 302.189 886.45 303.768C886.45 305.351 884.584 304.919 884.297 305.489C884.008 306.065 883.292 308.938 882.858 309.366C882.43 309.796 879.986 309.941 879.843 311.233C879.698 312.521 878.555 314.104 877.835 313.958C877.116 313.815 875.822 313.239 875.393 314.104C874.961 314.964 873.097 313.385 872.667 313.815C872.235 314.243 869.935 316.111 869.935 317.256C869.935 318.405 872.379 318.405 872.233 319.843C872.09 321.278 873.097 322.855 873.816 323.574C874.531 324.292 875.679 326.012 875.104 326.875C874.531 327.734 873.672 327.875 872.379 327.59C871.083 327.301 871.226 328.163 868.93 327.734C866.632 327.302 866.489 329.026 865.627 330.031C865.576 330.094 865.493 330.183 865.396 330.296C866.48 331.153 866.937 332.681 868.74 333.377C870.838 334.183 872.721 332.031 872.721 333.59C872.721 335.15 867.771 334.829 867.667 335.31C867.561 335.796 872.771 342.084 875.409 341.601C878.041 341.115 879.978 338.268 879.224 337.835C878.472 337.41 879.655 335.633 880.357 335.958C881.053 336.279 880.463 339.073 881.269 339.717C882.078 340.36 881.808 341.545 881.269 343.051C880.733 344.556 881.808 347.506 881.965 349.177C882.128 350.84 883.258 353.259 883.635 355.731C884.011 358.206 885.569 362.719 887.025 365.459C888.476 368.202 889.601 373.577 890.568 374.865C891.537 376.154 894.013 380.074 894.013 382.495C894.013 384.913 896.648 388.295 897.562 388.942C898.476 389.587 900.464 388.189 900.949 386.686C901.435 385.18 904.176 384.587 904.336 383.298C904.499 382.011 904.762 380.99 905.733 380.826C906.702 380.664 906.702 379.646 906.702 378.248C906.702 376.852 906.809 374.863 907.779 373.627C908.742 372.39 908.905 369.057 908.316 367.714C907.723 366.374 908.046 364.492 908.584 363.146C909.12 361.806 908.905 360.244 909.929 360.136C910.95 360.031 912.454 359.113 913.529 357.666C914.607 356.212 917.887 354.223 919.067 353.257C920.25 352.29 923.854 349.119 924.929 347.346C926.001 345.57 929.065 344.983 930.465 343.529C931.865 342.08 931.324 341.329 931.593 339.768C931.866 338.211 936.38 337.563 938.099 337.563C938.452 337.563 938.74 337.529 939.004 337.476C938.984 334.975 938.228 332.003 937.728 330.827Z" fill="#D1E9F9"/>
<path fill-rule="evenodd" clip-rule="evenodd" d="M1089.13 251.871C1087.72 252.342 1087.25 250.699 1086.08 250.699C1084.91 250.699 1085.14 253.514 1083.97 253.514C1082.8 253.514 1083.03 255.149 1081.4 255.382C1079.76 255.616 1079.29 255.616 1079.99 256.789C1080.69 257.96 1079.05 257.492 1077.65 257.492C1076.24 257.492 1076.24 256.554 1075.3 256.554C1074.37 256.554 1073.66 258.194 1072.96 259.127C1072.26 260.067 1067.57 262.172 1066.17 262.874C1065.77 263.076 1065.43 263.694 1065.14 264.474C1066.82 264.612 1068.55 265.571 1069.3 266.52C1070.32 267.812 1068.12 269.262 1067.15 270.443C1066.18 271.626 1067.74 271.68 1067.79 272.648C1067.85 273.612 1069.14 274.419 1069.63 273.562C1070.11 272.703 1070.91 273.022 1072.42 273.022C1072.86 273.022 1073.11 273.231 1073.28 273.514C1074.12 272.839 1075.09 272.231 1075.42 271.905C1076 271.329 1077.43 271.186 1078.72 271.186C1079.52 271.186 1080.06 270.935 1080.64 270.461C1079.28 268.971 1077.94 267.75 1077.42 267.435C1076.19 266.683 1076.94 264.584 1078.44 264.211C1079.95 263.834 1083.66 260.984 1084.79 260.342C1085.92 259.696 1085.16 257.601 1086.08 255.935C1086.55 255.064 1088.34 253.404 1090.13 252.016C1089.74 251.854 1089.39 251.779 1089.13 251.871Z" fill="#D1E9F9"/>
<path fill-rule="evenodd" clip-rule="evenodd" d="M140.556 190.161C141.096 188.762 141.203 187.904 137.115 186.289C133.029 184.677 133.459 183.604 130.663 178.657C127.866 173.716 122.812 171.567 122.812 169.739C122.812 167.911 117.866 168.127 117.866 169.52C117.866 170.919 115.715 171.352 114.531 172.102C113.348 172.856 112.812 171.672 111.735 170.276C110.66 168.88 108.079 167.483 108.079 166.621C108.079 165.765 107.434 163.936 105.607 164.797C103.779 165.657 102.811 164.797 102.273 165.441C101.736 166.087 100.339 165.047 100.339 165.047V109.332C99.6927 109.265 99.1163 109.157 98.672 108.989C96.3337 108.101 92.8645 106.49 91.0094 106.891C89.1544 107.295 85.4443 107.778 84.1532 107.133C82.8637 106.489 81.0879 105.924 78.4281 106.326C75.7667 106.731 74.0732 104.876 70.6847 104.068C67.2963 103.262 62.539 104.31 61.4111 104.714C60.2831 105.116 60.5224 103.506 59.0729 103.668C57.6202 103.829 58.7497 103.023 57.9434 101.813C57.1355 100.604 53.1038 101.733 51.6527 101.893C50.2016 102.054 49.7976 101.167 49.8784 100.442C49.9577 99.7156 48.5874 99.9594 48.0234 100.925C47.4594 101.893 45.8467 102.054 45.2004 101.411C44.5541 100.765 46.5723 100.523 46.6531 99.7979C46.7339 99.0728 44.5557 98.669 43.7493 98.4284C42.943 98.1861 41.6519 99.2343 39.9585 100.765C38.265 102.296 35.7652 102.135 34.2318 101.975C32.6999 101.813 30.764 102.136 30.8433 103.023C30.9256 103.91 32.7807 103.829 31.6512 104.956C30.5217 106.085 30.1193 103.425 28.9898 104.633C27.8603 105.841 24.4734 105.761 23.6655 105.601C22.8591 105.439 20.1993 108.34 19.3914 109.147C18.5851 109.956 20.0362 110.681 17.8611 113.018C15.6829 115.355 9.87539 114.872 8.66511 114.872C7.45638 114.872 8.34351 116.242 7.6972 117.129C7.05244 118.017 8.42274 118.823 11.7289 119.708C15.0366 120.593 17.2956 124.945 17.6964 125.994C18.1003 127.043 22.2144 125.914 23.8271 126.157C25.4397 126.397 23.6639 128.654 25.0358 129.3C26.4061 129.944 28.5051 128.977 28.9074 130.105C29.3114 131.233 26.1653 130.105 24.5526 131.314C22.9384 132.52 22.1336 133.09 21.4873 132.2C20.841 131.314 18.1796 131.877 16.8093 132.04C15.4374 132.2 16.73 130.345 16.8093 129.54C16.8901 128.734 14.9542 128.171 12.2913 129.702C9.62992 131.233 10.5978 130.671 10.2762 131.877C9.95463 133.09 8.82514 131.152 7.13167 132.2C5.43665 133.248 2.69448 133.975 2.2113 135.022C1.72657 136.07 5.8406 136.795 7.45327 137.119C9.06595 137.442 5.51744 138.487 6.80696 138.891C8.09803 139.293 7.53251 140.505 9.55068 141.553C11.5658 142.599 16.0837 141.553 17.294 141.553C18.5027 141.553 19.6322 143.005 20.5986 141.955C21.5681 140.907 25.1974 138.006 27.0524 139.699C28.9074 141.393 25.0358 141.147 26.0037 142.196C26.9716 143.245 28.1819 145.742 26.4076 147.034C24.6334 148.323 22.9399 147.436 21.972 147.355C21.0041 147.276 21.5696 149.13 20.0362 150.337C18.5058 151.548 17.3764 149.05 15.4405 149.05C13.5047 149.05 13.9086 151.546 13.9879 152.755C14.0687 153.966 11.0857 152.514 10.3586 155.416C9.63303 158.32 6.56926 155.821 8.58432 158.641C10.6009 161.461 10.2778 159.689 11.892 160.818C13.5031 161.947 10.1162 163.963 11.7289 164.284C13.3431 164.607 15.1174 167.509 16.2453 168.557C17.3748 169.606 18.8259 167.992 20.5194 167.913C22.2128 167.832 21.4065 165.494 22.3744 166.382C23.3423 167.269 24.7142 169.845 23.8271 170.491C22.9399 171.137 23.6639 173.151 23.5039 174.12C23.3423 175.087 27.214 174.765 27.4563 173.635C27.6987 172.506 30.7625 172.183 32.4575 174.037C34.151 175.893 34.7165 176.213 34.7165 174.764C34.7165 173.311 36.1676 171.7 36.2468 172.907C36.3292 174.118 37.6995 174.438 40.1993 173.311C42.7006 172.182 41.5711 173.393 40.2801 175.003C38.4996 177.231 40.2801 180.484 38.9905 180.806C37.6995 181.129 36.6523 184.436 34.5549 184.677C32.4591 184.921 28.909 188.873 28.4258 189.515C27.9426 190.161 23.4247 188.225 22.7799 190.078C22.1351 191.932 19.4038 193.314 20.1185 194.029C20.6017 194.514 24.3118 192.66 24.4734 191.689C24.6349 190.725 25.1197 190.887 25.7644 191.612C26.4092 192.337 28.0234 191.292 28.7474 190.643C29.473 190 30.6833 190.241 31.4088 190.32C32.1375 190.401 32.4591 189.435 34.6357 189.029C36.8123 188.629 36.3292 187.981 36.8123 186.856C37.2986 185.727 42.4598 183.307 43.4262 183.067C44.3941 182.824 43.8301 181.214 44.8788 181.13C45.9275 181.051 47.5387 179.761 48.9105 178.63C50.2824 177.503 50.604 177.986 51.6527 177.584C52.7014 177.182 51.8951 175.087 52.9438 174.922C53.9925 174.764 54.7988 173.955 54.7988 173.07C54.7988 172.183 52.139 172.183 51.8966 171.62C51.6542 171.054 53.9925 168.958 54.8811 169.039C55.7667 169.121 57.2194 168.152 57.3002 166.863C57.3809 165.574 58.672 165.332 59.7207 164.205C60.7679 163.074 60.5271 162.109 61.5758 162.028C62.6245 161.947 63.5924 160.497 64.7203 159.854C65.8498 159.208 64.7203 160.657 66.8985 160.741C69.0752 160.82 68.592 162.835 66.9793 162.11C65.3666 161.383 64.6411 161.464 63.19 162.835C61.7373 164.206 62.8668 164.61 61.7373 166.14C60.6079 167.669 60.5271 168.637 61.9797 168.8C63.4324 168.96 62.0621 170.009 60.6886 170.411C59.3168 170.815 60.2863 171.621 62.1397 171.621C63.9963 171.621 66.7354 168.96 69.3191 167.671C71.8997 166.383 73.8355 167.671 74.5611 167.428C75.2882 167.189 73.7547 165.978 74.6434 165.578C75.5305 165.174 73.5947 164.93 73.0292 163.399C72.4652 161.869 73.9147 162.835 74.2379 161.629C74.5611 160.418 75.4482 160.899 76.2545 161.464C77.0609 162.029 78.1904 160.899 78.9159 162.433C79.6414 163.966 80.4478 162.029 81.7389 163.078C83.0299 164.127 81.4965 163.966 80.1246 164.287C78.7528 164.61 79.4799 166.464 80.527 165.579C81.5757 164.691 82.4629 164.127 83.4323 165.015C84.4002 165.901 84.8026 165.498 85.6105 164.691C86.4153 163.887 86.4153 164.772 86.4153 165.416C86.4153 166.062 88.1088 166.301 90.5293 166.706C92.9484 167.11 97.3032 166.545 98.4327 166.466C99.5622 166.387 99.1598 168.157 101.66 168.641C104.159 169.127 104.806 166.144 106.094 167.192C107.386 168.238 106.094 168.641 105.37 169.449C104.643 170.253 106.176 170.334 107.144 170.738C108.112 171.141 110.371 171.787 111.418 172.832C112.467 173.882 113.111 175.009 115.69 176.3C118.273 177.59 115.773 173.076 117.789 174.525C119.805 175.978 119.081 174.606 120.692 176.056C122.304 177.509 121.74 175.411 121.015 172.994C120.289 170.576 121.74 172.188 122.467 173.317C123.193 174.446 123.193 176.623 122.708 178.073C122.224 179.525 119.805 178.314 120.047 177.509C120.289 176.702 117.626 177.025 117.547 178.154C117.466 179.283 119.241 181.461 120.532 181.702C121.821 181.946 120.853 183.96 121.661 184.202C122.767 184.533 122.708 186.621 123.355 186.295C123.998 185.975 123.757 183.477 123.031 182.349C122.304 181.219 122.627 179.604 123.595 179.927C124.563 180.248 123.595 181.944 124.079 182.508C124.563 183.071 125.127 181.946 126.257 181.3C127.386 180.652 125.772 178.798 126.178 177.831C126.58 176.862 127.869 178.637 128.354 180.329C128.837 182.022 127.144 181.946 127.144 182.829C127.144 183.719 125.612 183.314 125.129 183.798C124.644 184.283 124.886 187.506 125.533 187.585C126.179 187.666 126.58 184.925 126.985 186.293C127.388 187.666 128.92 184.522 129.324 185.812C129.726 187.101 131.662 188.554 132.389 188.23C133.113 187.908 132.066 186.537 130.938 186.456C129.807 186.374 129.968 184.522 131.017 184.441C132.066 184.362 133.921 187.101 133.84 188.068C133.759 189.034 132.872 188.953 131.983 189.924C131.098 190.891 129.888 188.311 128.839 188.391C127.79 188.472 128.839 190.082 129.325 191.21C129.808 192.342 128.034 193.873 129.404 194.759C130.776 195.644 130.375 194.196 130.615 193.553C130.857 192.905 131.907 193.711 132.631 194.278C133.309 194.8 133.439 192.986 133.439 192.259C133.439 191.534 134.648 191.936 135.294 192.905C135.939 193.873 136.02 191.857 136.988 192.017C137.956 192.18 137.311 193.711 137.311 194.598C137.311 195.483 139.004 193.873 138.843 194.84C138.816 194.986 138.819 195.121 138.835 195.247C139.728 194.607 140.656 193.947 141.316 193.494C143.03 192.311 140.019 191.554 140.556 190.161ZM4.46932 201.607C6.40515 200.802 7.21149 199.835 6.40515 198.867C5.59726 197.9 2.97938 202.229 4.46932 201.607ZM18.1799 194.35C16.4057 193.707 11.7354 196.543 13.3419 196.771C14.4714 196.933 14.9546 195.805 16.2441 195.805C17.5352 195.805 19.9557 194.998 18.1799 194.35ZM59.0711 175.407C59.1519 174.519 57.8609 174.6 56.2482 176.455C54.634 178.309 53.2652 179.277 53.0213 180.166C52.7805 181.052 50.9239 180.003 50.3599 181.132C49.7959 182.263 50.7592 184.764 51.8933 183.955C53.0213 183.149 53.1021 183.955 53.8292 183.955C54.5532 183.955 57.8609 181.698 58.5864 180.566C59.312 179.437 57.2953 179.117 57.2161 178.39C57.1338 177.665 58.9096 177.665 59.7967 177.182C60.6838 176.696 58.9888 176.292 59.0711 175.407ZM7.69607 165.896C7.5345 164.606 4.06678 165.815 4.46917 167.025C4.87312 168.231 8.14663 169.023 9.55112 168.556C10.7614 168.151 11.1638 166.862 10.2767 166.056C9.38954 165.252 7.8561 167.186 7.69607 165.896ZM46.9957 343.884C44.9791 344.118 46.0915 349.157 47.1744 348.328C47.945 347.736 49.3681 347.618 49.7845 346.845C50.3376 345.819 49.0123 343.648 46.9957 343.884ZM44.3278 340.801C43.1393 340.977 43.9083 343.141 44.6821 342.576C45.9871 341.63 45.5133 340.624 44.3278 340.801ZM31.7522 336.712C32.8195 337.838 33.5901 337.541 33.8884 336.533C34.1836 335.526 30.6072 335.505 31.7522 336.712ZM37.4446 339.138C38.2168 340.324 39.0464 340.565 39.6974 339.498C40.3515 338.427 36.5451 337.756 37.4446 339.138ZM368.428 231.22C368.322 230.146 365.095 231.003 363.59 229.823C362.085 228.636 359.504 234.015 358.966 236.272C358.427 238.528 354.45 241 354.45 241C354.45 241 342.942 241.107 341.974 241.107C341.303 241.107 338.659 243.386 337.107 244.778C337.155 244.838 337.202 244.9 337.243 244.973C338.407 247.073 334.178 248.36 330.146 248.522C328.907 248.57 327.973 248.697 327.254 248.798C327.395 249.292 327.504 249.835 327.46 250.24C327.429 250.498 326.997 250.817 326.382 251.144C325.765 252.394 320.817 254.806 318.05 256.264C314.984 257.876 310.791 257.07 310.791 254.65C310.791 252.234 313.05 252.716 313.533 253.845C313.715 254.265 314.26 253.959 314.997 253.43C314.231 252.685 314.243 251.494 314.408 250.579C313.484 250.174 314.924 246.567 313.05 245.945C311.114 245.298 308.855 248.686 309.177 246.587C309.5 244.49 312.404 242.719 310.63 239.978C308.855 237.237 305.63 237.237 304.984 239.332C304.339 241.43 302.08 240.463 301.275 242.074C300.469 243.686 299.661 247.233 300.307 249.815C300.95 252.393 300.146 253.681 297.727 255.133C295.306 256.584 294.04 252.914 294.983 248.202C295.629 244.973 297.404 241.914 295.789 241.914C294.175 241.914 297.887 238.043 301.274 237.237C304.661 236.428 308.855 236.754 308.855 235.785C308.855 235.588 309.009 235.459 309.266 235.369C308.576 234.823 307.808 234.312 307.193 233.93C307.129 234.135 306.999 234.329 306.758 234.494C305.43 235.419 305.79 233.04 303.371 233.04C300.949 233.04 298.531 235.296 296.596 234.334C294.66 233.365 295.628 232.076 293.853 232.076C292.078 232.076 295.145 228.689 292.562 230.141C289.982 231.593 286.11 235.14 284.337 233.528C282.562 231.916 280.949 234.012 279.658 232.72C278.367 231.428 284.173 227.885 286.916 228.045C287.592 228.082 288.208 227.787 288.784 227.323C287.342 226.795 284.367 225.633 283.582 226.593C282.614 227.775 281.218 227.018 280.464 226.054C279.712 225.087 278.744 226.376 277.453 224.874C276.162 223.365 274.873 224.442 274.119 224.762C273.367 225.087 272.399 224.225 270.999 223.691C269.603 223.15 270.678 221.754 269.494 220.894C268.312 220.034 268.243 222.521 268.243 222.521L168 223.062C168.113 223.231 168.226 223.396 168.355 223.531C169.564 224.821 168.596 225.785 169 227.32C169.404 228.851 169.081 231.026 167.871 231.026C166.662 231.026 166.5 229.658 167.386 229.172C168.273 228.689 167.79 226.916 166.903 226.916C166.385 226.916 166.176 226.309 166.197 225.598C164.552 226.053 162.66 225.844 160.452 225.582C160.488 225.675 160.522 225.767 160.53 225.869C160.61 226.835 161.094 229.011 162.385 230.703C163.676 232.397 162.787 233.445 163.997 234.09C165.208 234.734 165.127 235.461 163.997 235.296C162.868 235.138 163.674 236.186 163.273 238.607C162.869 241.026 162.95 246.018 162.708 247.556C162.466 249.084 160.69 251.585 161.74 253.197C162.787 254.809 163.514 257.065 162.949 259.081C162.385 261.096 162.464 262.303 163.351 263.835C164.238 265.368 163.513 268.028 164.482 268.591C165.45 269.158 166.337 270.284 167.224 271.734C168.111 273.188 168.918 272.3 169.078 273.751C169.239 275.202 169.239 275.444 170.529 276.008C171.822 276.571 171.014 278.02 171.014 278.827C171.014 279.632 172.707 281.087 174.804 282.939C176.9 284.792 175.126 286.323 176.658 286.323C178.191 286.323 179.643 287.211 181.174 288.178C182.706 289.146 183.191 288.579 184.24 288.821C185.287 289.064 187.224 291.321 187.627 292.852C187.816 293.573 188.063 294.331 188.444 295.147L196.806 294.051C196.806 294.051 199.392 295.862 200.856 296.205C202.321 296.548 210.248 299.475 210.248 299.475L220.587 299.385L221.793 297.838H227.481C227.481 297.838 231.099 301.368 231.616 301.545C232.134 301.714 233.944 303.349 233.944 304.385C233.944 305.418 234.374 306.279 235.236 306.71C236.097 307.14 239.027 309.034 239.458 308.86C239.888 308.692 240.752 305.418 242.301 305.506C243.853 305.59 248.074 306.793 248.764 309.206C249.452 311.619 251.518 313.601 252.21 314.115C252.898 314.63 252.555 316.095 253.072 316.873C253.588 317.647 253.502 319.11 254.104 319.11C254.71 319.11 257.811 321.006 259.189 320.918C259.6 320.894 260.143 321.141 260.702 321.483C260.87 318.604 257.904 318.118 259.65 316.795C261.667 315.261 259.569 313.972 260.537 313.328C261.507 312.683 263.199 312.037 263.199 311.071C263.199 310.104 264.086 310.104 265.375 310.265C266.666 310.424 269.085 308.166 268.924 307.281C268.762 306.394 269.165 306.236 270.698 306.554C272.23 306.879 271.989 304.779 272.957 305.104C273.925 305.425 274.733 305.991 274.812 305.265C274.891 304.54 275.861 304.702 276.586 305.669C277.312 306.635 279.408 306.879 279.569 305.751C279.731 304.623 280.941 305.751 281.99 306.88C283.037 308.009 283.522 307.685 285.054 307.765C286.587 307.848 286.587 307.442 286.666 306.477C286.747 305.511 288.36 308.571 289.893 308.733C291.425 308.896 290.216 307.765 289.087 306.88C287.957 305.994 289.328 305.588 288.36 304.865C287.392 304.138 289.569 303.169 291.504 303.255C293.44 303.332 293.359 303.818 294.087 302.689C294.812 301.557 295.538 302.689 295.538 303.655C295.538 304.624 298.684 303.093 300.377 303.093C302.071 303.093 303.603 304.542 303.764 305.512C303.926 306.478 305.055 306.963 306.265 305.913C307.474 304.866 308.523 303.657 309.652 304.783C310.782 305.913 311.91 307.444 313.282 308.815C314.652 310.183 312.637 311.88 313.362 312.925C314.09 313.974 313.282 315.425 314.894 316.554C316.507 317.683 315.056 320.02 316.347 320.343C317.638 320.665 318.685 322.679 318.847 323.484C319.008 324.29 321.427 325.338 321.589 323.969C321.751 322.599 323.043 320.984 323.203 319.697C323.365 318.408 322.235 313.812 321.187 312.362C320.139 310.91 321.429 310.585 320.139 308.897C318.848 307.2 318.042 304.219 318.123 301.801C318.204 299.382 321.027 295.433 322.397 294.222C323.769 293.017 325.301 293.66 325.624 292.369C325.947 291.081 327.64 289.47 328.607 289.47C329.575 289.47 330.622 289.71 330.783 288.664C330.945 287.616 332.558 286.323 334.655 286.003C336.752 285.68 335.542 284.548 334.978 283.584C334.414 282.616 335.463 281.649 335.865 282.292C336.269 282.939 337.56 283.019 338.365 282.453C339.172 281.89 341.028 280.36 339.252 280.279C337.476 280.199 337.074 279.472 338.123 279.068C339.17 278.668 338.284 276.733 336.832 276.571C335.379 276.41 335.864 275.688 336.751 274.795C337.638 273.91 335.46 272.461 334.413 271.733C333.364 271.008 335.057 270.605 335.864 270.444C336.67 270.282 336.025 266.573 336.429 265.688C336.832 264.803 338.204 264.803 337.64 265.688C337.074 266.571 336.268 268.025 337.316 269.233C338.365 270.442 338.688 271.731 338.284 273.587C337.88 275.442 338.688 274.959 339.897 272.537C341.107 270.119 341.267 268.025 340.463 267.781C339.655 267.542 339.735 265.123 340.624 266.25C341.51 267.38 341.833 267.542 343.205 266.088C344.575 264.638 346.028 262.143 345.141 261.576C344.253 261.012 345.545 260.445 347.157 260.531C348.77 260.61 352.238 259.559 352.48 259.077C353.268 257.503 346.915 259.803 346.915 258.916C346.915 258.028 350.948 257.141 352.803 257.063C354.658 256.983 353.773 254.484 354.577 255.531C355.384 256.579 356.594 256.416 357.641 255.773C358.691 255.129 357.885 253.275 356.675 252.955C355.466 252.629 357.562 251.823 357.16 251.099C356.756 250.372 357.967 247.47 359.498 247.15C361.031 246.829 360.306 245.858 361.595 245.858C362.885 245.858 363.127 244.327 364.255 243.2C365.384 242.07 366.999 244.97 368.773 243.36C369.498 242.7 370.482 241.967 371.49 241.324C367.358 235.865 368.527 232.213 368.428 231.22Z" fill="#D1E9F9"/>
<path fill-rule="evenodd" clip-rule="evenodd" d="M1143.45 245.724C1142.7 244.756 1141.41 246.263 1139.8 246.584C1138.18 246.904 1133.13 242.716 1131.84 240.78C1130.55 238.846 1128.4 240.46 1129.48 241.854C1130.55 243.25 1129.26 243.679 1129.26 245.618C1129.26 247.55 1127.97 247.55 1128.18 248.84C1128.4 250.131 1126.46 249.915 1125.17 250.131C1123.88 250.348 1125.28 251.637 1123.77 252.283C1122.27 252.926 1122.38 254 1123.13 254.43C1123.88 254.86 1123.35 256.258 1123.13 257.225C1122.91 258.193 1124.1 257.441 1124.96 256.474C1125.82 255.508 1126.72 256.94 1126.89 256.042C1127.11 254.971 1124.64 254.432 1124.74 253.354C1124.85 252.286 1126.46 253.68 1127.75 253.034C1129.04 252.392 1131.62 252.929 1133.24 254.323C1134.85 255.722 1135.28 255.187 1135.6 253.466C1135.92 251.747 1138.4 250.994 1140.87 250.994C1143.35 250.994 1143.56 249.808 1142.81 249.274C1142.06 248.738 1146.9 245.62 1146.79 244.76C1146.68 243.898 1144.21 246.691 1143.45 245.724ZM1123.67 260.448C1122.59 260.986 1121.84 264.319 1123.02 265.283C1124.2 266.25 1121.09 268.08 1121.19 270.123C1121.3 272.162 1119.25 272.162 1118.93 273.667C1118.61 275.174 1117.43 274.851 1115.6 276.247C1113.78 277.642 1112.8 276.03 1113.23 275.066C1113.66 274.095 1110.44 275.603 1110.55 277.968C1110.66 280.331 1107.54 280.545 1108.29 281.62C1109.04 282.698 1105.93 283.339 1106.03 282.372C1106.14 281.407 1104.09 281.948 1101.62 282.912C1099.15 283.879 1097.64 281.837 1096.25 283.233C1094.85 284.632 1092.48 287.104 1090.65 287.427C1088.83 287.746 1089.88 289.962 1090.65 289.575C1091.95 288.929 1093.99 289.575 1094.63 288.609C1095.28 287.64 1100.55 286.46 1103.77 286.353C1107 286.243 1105.06 287.854 1105.28 289.575C1105.5 291.294 1108.18 290.972 1109.58 289.362C1110.98 287.746 1112.06 287.853 1110.87 286.884C1109.69 285.92 1111.09 285.059 1111.95 286.351C1112.81 287.639 1115.5 287.744 1116.57 286.025C1117.65 284.306 1117.97 286.351 1119.26 286.241C1120.55 286.136 1121.3 282.91 1121.41 284.092C1121.52 285.275 1123.56 284.954 1124.85 283.558C1126.14 282.157 1124.96 279.687 1125.82 278.398C1126.68 277.108 1127.54 274.418 1126.68 272.806C1125.82 271.194 1128.62 270.122 1130.01 268.826C1131.41 267.539 1128.4 261.09 1128.29 259.154C1128.19 257.226 1124.74 259.912 1123.67 260.448ZM1100.01 288.393C1099.58 289.576 1098.29 289.041 1096.57 289.364C1094.85 289.685 1094.79 293.783 1096.03 294.198C1097 294.519 1097.75 294.519 1098.07 293.23C1098.39 291.941 1100.11 291.511 1101.19 292.045C1102.27 292.586 1103.66 290.432 1103.66 288.82C1103.66 287.212 1100.44 287.212 1100.01 288.393ZM1052.06 326.727C1051.56 327.227 1050.56 329.033 1050.06 331.033C1049.56 333.533 1051.43 336.112 1052.06 336.033C1053.07 335.906 1053.56 333.727 1054.56 332.227C1055.06 331.227 1055.06 331.227 1056.06 328.727C1056.53 327.551 1057.06 325.033 1056.56 324.726C1054.56 324.226 1052.56 326.227 1052.06 326.727ZM1092.59 292.586C1092.59 291.511 1090.22 291.725 1090.12 290.757C1090.01 289.789 1088.4 290.33 1086.78 291.51C1085.17 292.69 1084.63 292.906 1085.28 294.087C1085.92 295.271 1086.89 294.196 1087.32 293.014C1087.75 291.831 1088.83 294.735 1087.86 296.67C1086.89 298.606 1087.98 301.33 1089.25 301.073C1090.33 300.862 1091.73 296.993 1093.34 294.949C1094.96 292.907 1092.59 293.657 1092.59 292.586Z" fill="#D1E9F9"/>
</svg>
